<?xml version="1.0"?>
<svg xmlns="http://www.w3.org/2000/svg" viewBox="0 0 645.18 187.87">
<title>name</title>
<g id="Layer_2" data-name="Layer 2">
    <g id="Layer_1-2" data-name="Layer 1">
        <path d="M4.78,0H19l18.3,84.1L55.72,0H69.8l1.92,103.68H60.07L58.92,28.42,41.38,103.68H33.19L15.78,28.42l-1.15,75.26H2.86Z"/>
        <path d="M92.14,102.27a16.61,16.61,0,0,1-5.31-6.4,18.87,18.87,0,0,1-1.92-8.32q0-8.7,3.71-14.14A27.05,27.05,0,0,1,98,64.83a160.39,160.39,0,0,1,16.06-7.36V52.22q0-7.3-1.47-10.3t-6-3q-7.81,0-7.81,10.5v3.71l-13.57-.51.13-2.69q.64-11.14,6.21-16.19t15.94-5.06q10.62,0,15.42,5.82t4.8,17.6V85.89a133.1,133.1,0,0,0,1.28,17.79H116.52q-1.41-7.3-1.79-10.88a18.7,18.7,0,0,1-5.31,8.45,13.76,13.76,0,0,1-9.66,3.46A12.76,12.76,0,0,1,92.14,102.27Zm18.24-11.46a16.55,16.55,0,0,0,3.71-4v-21q-5.63,3.33-8.45,5.18a17.74,17.74,0,0,0-4.93,5,12.86,12.86,0,0,0-2.11,7.36q0,4.61,1.66,7.1a5.48,5.48,0,0,0,4.86,2.5A8.2,8.2,0,0,0,110.38,90.82Z"/>
        <path d="M141.35,29.7H155v10.5q3.84-6.27,7.87-8.83a15.63,15.63,0,0,1,8.51-2.56,17.84,17.84,0,0,1,2.18.13V44a21.66,21.66,0,0,0-7.55-1.54,11.2,11.2,0,0,0-6,1.6A16.34,16.34,0,0,0,155,49.66v54h-13.7Z"/>
        <path d="M188.46,101.18A17.6,17.6,0,0,1,182,91.33a62.38,62.38,0,0,1-1.73-16.06v-17A64.4,64.4,0,0,1,182,41.86a17,17,0,0,1,6.46-9.79q4.73-3.39,13.44-3.39,7.93,0,12.35,2.56a13.54,13.54,0,0,1,6.14,7.62A41.39,41.39,0,0,1,222.12,52v4.35H209.7V51.84q0-7.3-1.6-10.18T202,38.78q-3.46,0-5.12,1.54a8.81,8.81,0,0,0-2.3,5A59.59,59.59,0,0,0,194,55.42v23.3a47.26,47.26,0,0,0,.77,9.79,8,8,0,0,0,2.5,4.74,7.88,7.88,0,0,0,4.93,1.34q4.73,0,6.14-3.14t1.41-9.66v-6h12.42V80.9q0,12-4.42,17.92T201.9,104.7Q193.19,104.7,188.46,101.18Z"/>
        <path d="M237.8,97.73q-4.93-7-4.93-20.29V55.94q0-13.31,4.93-20.29t16.7-7q11.65,0,16.58,7T276,55.94v21.5q0,13.31-4.93,20.29t-16.58,7Q242.73,104.7,237.8,97.73Zm22.08-5.31a10.78,10.78,0,0,0,2-5.38,77,77,0,0,0,.38-8.7V55.17a78.79,78.79,0,0,0-.38-8.77,10.87,10.87,0,0,0-2-5.44q-1.67-2.17-5.38-2.18T249.06,41A10.53,10.53,0,0,0,247,46.4a78.79,78.79,0,0,0-.38,8.77V78.34A77,77,0,0,0,247,87a10.44,10.44,0,0,0,2.11,5.38q1.73,2.18,5.44,2.18T259.88,92.42Z"/>
        <path d="M319,0h25.73q13.44,0,19.52,7.3t6.08,21.38q0,12.67-6.53,19.71t-18.94,7H333.48v48.26H319Zm21.12,45.06a27.61,27.61,0,0,0,9.92-1.41,9,9,0,0,0,5.06-4.86q1.54-3.46,1.54-10,0-7.94-1.15-11.65a8.12,8.12,0,0,0-4.54-5.25q-3.39-1.54-10.69-1.54h-6.78V45.06Z"/>
        <path d="M382.18,97.73q-4.93-7-4.93-20.29V55.94q0-13.31,4.93-20.29t16.7-7q11.65,0,16.58,7t4.93,20.29v21.5q0,13.31-4.93,20.29t-16.58,7Q387.11,104.7,382.18,97.73Zm22.08-5.31a10.78,10.78,0,0,0,2-5.38,76.69,76.69,0,0,0,.38-8.7V55.17a78.51,78.51,0,0,0-.38-8.77,10.87,10.87,0,0,0-2-5.44q-1.66-2.17-5.38-2.18T393.45,41a10.53,10.53,0,0,0-2.11,5.44,78.79,78.79,0,0,0-.38,8.77V78.34a77,77,0,0,0,.38,8.7,10.44,10.44,0,0,0,2.11,5.38q1.73,2.18,5.44,2.18T404.26,92.42Z"/>
        <path d="M434.21,0h13.7V103.68h-13.7Z"/>
        <path d="M469.41,101.44a17.28,17.28,0,0,1-6.66-9.66q-1.92-6.4-1.92-16.64V58.24q0-15.36,4.8-22.46t17.09-7.1q9,0,13.5,3.71a17.92,17.92,0,0,1,6,10.43,88.44,88.44,0,0,1,1.47,18.11v6H474.53V76.8q0,6.66.32,10a10.55,10.55,0,0,0,2,5.57q1.73,2.24,5.7,2.24,4.48,0,6.08-3t1.6-9.15V78h13.31v2.82q0,11.65-5,17.79t-15.87,6.14Q474.15,104.7,469.41,101.44Zm20.86-41.92V52.86q0-7.55-1.47-10.82t-6.21-3.26a7.39,7.39,0,0,0-5.06,1.54,8.64,8.64,0,0,0-2.37,5.06,60.81,60.81,0,0,0-.64,10.18v4Z"/>
        <path d="M523.68,100.29Q520,95.87,519.84,87V38.78H512V29.7h7.81V8.06h13.7V29.7h11.9v9.09h-11.9V86.14q0,4.48,1.41,6.27t5.38,1.79a32,32,0,0,0,5-.38v10.11a64.14,64.14,0,0,1-9.47.77Q527.39,104.7,523.68,100.29Z"/>
        <path d="M563.11,100.29q-3.71-4.42-3.84-13.25V38.78h-7.81V29.7h7.81V8.06H573V29.7h11.9v9.09H573V86.14q0,4.48,1.41,6.27t5.38,1.79a32,32,0,0,0,5-.38v10.11a64.14,64.14,0,0,1-9.47.77Q566.82,104.7,563.11,100.29Z"/>
        <path d="M598.5,97.73q-4.93-7-4.93-20.29V55.94q0-13.31,4.93-20.29t16.7-7q11.65,0,16.58,7t4.93,20.29v21.5q0,13.31-4.93,20.29t-16.58,7Q603.42,104.7,598.5,97.73Zm22.08-5.31a10.78,10.78,0,0,0,2-5.38,76.69,76.69,0,0,0,.38-8.7V55.17a78.51,78.51,0,0,0-.38-8.77,10.87,10.87,0,0,0-2-5.44q-1.66-2.17-5.38-2.18T609.76,41a10.53,10.53,0,0,0-2.11,5.44,78.79,78.79,0,0,0-.38,8.77V78.34a77,77,0,0,0,.38,8.7,10.44,10.44,0,0,0,2.11,5.38q1.73,2.18,5.44,2.18T620.58,92.42Z"/>
        <path d="M23.53,156.84H5.63v18.84H0V133H26.43v4.6H5.63v14.62h17.9Z"/>
        <path d="M46.88,148.84a16.25,16.25,0,0,0-2.67-.21q-5.33,0-7.24,4.54v22.5H31.55V144h5.27l.09,3.66a8.44,8.44,0,0,1,7.56-4.25,5.54,5.54,0,0,1,2.4.41Z"/>
        <path d="M49.83,159.54a18.72,18.72,0,0,1,1.83-8.38,13.65,13.65,0,0,1,5.1-5.74,13.88,13.88,0,0,1,7.46-2,13.37,13.37,0,0,1,10.47,4.48q4,4.48,4,11.92v.38a18.88,18.88,0,0,1-1.77,8.31,13.46,13.46,0,0,1-5.07,5.73,14,14,0,0,1-7.57,2.05,13.33,13.33,0,0,1-10.44-4.48q-4-4.48-4-11.87Zm5.45.64a13.56,13.56,0,0,0,2.45,8.47,8.29,8.29,0,0,0,13.11,0q2.43-3.24,2.43-9.07a13.54,13.54,0,0,0-2.48-8.45,7.87,7.87,0,0,0-6.58-3.24A7.78,7.78,0,0,0,57.74,151Q55.28,154.23,55.28,160.18Z"/>
        <path d="M90.62,144l.18,4a11.55,11.55,0,0,1,9.49-4.57q10,0,10.14,11.34v20.95H105v-21a7.3,7.3,0,0,0-1.57-5.07A6.28,6.28,0,0,0,98.64,148,7.82,7.82,0,0,0,94,149.4a9.55,9.55,0,0,0-3.11,3.69v22.59H85.49V144Z"/>
        <path d="M125.95,136.31V144h5.92v4.19h-5.92v19.68a4.4,4.4,0,0,0,.79,2.86,3.33,3.33,0,0,0,2.7,1,13.13,13.13,0,0,0,2.58-.35v4.37a15.82,15.82,0,0,1-4.16.58,6.75,6.75,0,0,1-5.48-2.2,9.44,9.44,0,0,1-1.85-6.24V148.17h-5.77V144h5.77v-7.68Z"/>
        <path d="M151.35,176.27A13.85,13.85,0,0,1,140.86,172q-4-4.23-4-11.32v-1a19,19,0,0,1,1.8-8.42,14.06,14.06,0,0,1,5-5.8,12.68,12.68,0,0,1,7-2.09q6.18,0,9.61,4.07t3.43,11.66v2.26H142.24A11.26,11.26,0,0,0,145,169a8.61,8.61,0,0,0,6.67,2.89,9.44,9.44,0,0,0,4.86-1.17,12.22,12.22,0,0,0,3.49-3.11l3.31,2.58Q159.32,176.27,151.35,176.27Zm-.67-28.42a7.23,7.23,0,0,0-5.51,2.39,11.61,11.61,0,0,0-2.75,6.69h15.88v-.41a10.33,10.33,0,0,0-2.23-6.4A6.81,6.81,0,0,0,150.67,147.85Z"/>
        <path d="M175.11,144l.18,4a11.55,11.55,0,0,1,9.49-4.57q10,0,10.14,11.34v20.95h-5.42v-21a7.3,7.3,0,0,0-1.57-5.07,6.28,6.28,0,0,0-4.79-1.64,7.82,7.82,0,0,0-4.63,1.41,9.55,9.55,0,0,0-3.11,3.69v22.59H170V144Z"/>
        <path d="M201.77,159.57q0-7.29,3.46-11.73a11.76,11.76,0,0,1,17.87-.63V130.68h5.42v45h-5l-.26-3.4a11,11,0,0,1-9.05,4,10.83,10.83,0,0,1-9-4.51q-3.47-4.51-3.47-11.78Zm5.42.62q0,5.39,2.23,8.44a7.2,7.2,0,0,0,6.15,3A7.91,7.91,0,0,0,223.1,167V152.48a8,8,0,0,0-7.47-4.48,7.23,7.23,0,0,0-6.21,3.08Q207.19,154.15,207.19,160.18Z"/>
        <path d="M261.83,162.23l.82,5.63,1.2-5.07L272.28,133H277l8.23,29.77,1.17,5.16.91-5.74L294,133h5.65l-10.34,42.66h-5.13l-8.79-31.08-.67-3.25L274,144.6l-9.11,31.08h-5.13L249.46,133h5.63Z"/>
        <path d="M317.26,176.27A13.85,13.85,0,0,1,306.77,172q-4-4.23-4-11.32v-1a19,19,0,0,1,1.8-8.42,14.06,14.06,0,0,1,5-5.8,12.68,12.68,0,0,1,7-2.09q6.18,0,9.61,4.07t3.43,11.66v2.26H308.14a11.27,11.27,0,0,0,2.74,7.57,8.61,8.61,0,0,0,6.67,2.89,9.44,9.44,0,0,0,4.86-1.17,12.22,12.22,0,0,0,3.49-3.11l3.31,2.58Q325.22,176.27,317.26,176.27Zm-.67-28.42a7.23,7.23,0,0,0-5.51,2.39,11.61,11.61,0,0,0-2.75,6.69H324.2v-.41a10.32,10.32,0,0,0-2.23-6.4A6.81,6.81,0,0,0,316.58,147.85Z"/>
        <path d="M362.72,160.18q0,7.27-3.34,11.67a10.67,10.67,0,0,1-9,4.41,11.05,11.05,0,0,1-9.29-4.25l-.26,3.66h-5v-45h5.42v16.79a11,11,0,0,1,9.05-4.07,10.74,10.74,0,0,1,9.07,4.37q3.3,4.37,3.3,12Zm-5.42-.62q0-5.54-2.14-8.55a7.08,7.08,0,0,0-6.15-3,8,8,0,0,0-7.71,5v13.71a8.18,8.18,0,0,0,7.76,5,7,7,0,0,0,6.06-3Q357.3,165.63,357.3,159.57Z"/>
        <path d="M385.25,175.68V133h12a19.38,19.38,0,0,1,9.84,2.46,16.64,16.64,0,0,1,6.61,7,22.79,22.79,0,0,1,2.36,10.43v2.72a22.87,22.87,0,0,1-2.33,10.58,16.38,16.38,0,0,1-6.65,7,20.62,20.62,0,0,1-10.06,2.49Zm5.63-38.06v33.46h5.92q6.5,0,10.12-4t3.62-11.52V153q0-7.27-3.41-11.3t-9.68-4.09Z"/>
        <path d="M436.9,176.27A13.85,13.85,0,0,1,426.42,172q-4-4.23-4-11.32v-1a19,19,0,0,1,1.8-8.42,14.06,14.06,0,0,1,5-5.8,12.68,12.68,0,0,1,7-2.09q6.18,0,9.61,4.07t3.43,11.66v2.26H427.79a11.27,11.27,0,0,0,2.74,7.57,8.61,8.61,0,0,0,6.67,2.89,9.44,9.44,0,0,0,4.86-1.17,12.22,12.22,0,0,0,3.49-3.11l3.31,2.58Q444.87,176.27,436.9,176.27Zm-.67-28.42a7.23,7.23,0,0,0-5.51,2.39,11.61,11.61,0,0,0-2.75,6.69h15.88v-.41a10.32,10.32,0,0,0-2.23-6.4A6.81,6.81,0,0,0,436.23,147.85Z"/>
        <path d="M465.61,168.33,473.47,144H479l-11.37,31.7h-4.13L452,144h5.54Z"/>
        <path d="M497,176.27A13.85,13.85,0,0,1,486.5,172q-4-4.23-4-11.32v-1a19,19,0,0,1,1.8-8.42,14.06,14.06,0,0,1,5-5.8,12.68,12.68,0,0,1,7-2.09q6.18,0,9.61,4.07t3.43,11.66v2.26H487.88a11.27,11.27,0,0,0,2.74,7.57,8.61,8.61,0,0,0,6.67,2.89,9.44,9.44,0,0,0,4.86-1.17,12.22,12.22,0,0,0,3.49-3.11l3.31,2.58Q505,176.27,497,176.27Zm-.67-28.42a7.23,7.23,0,0,0-5.51,2.39,11.61,11.61,0,0,0-2.75,6.69h15.88v-.41a10.32,10.32,0,0,0-2.23-6.4A6.81,6.81,0,0,0,496.32,147.85Z"/>
        <path d="M521.51,175.68h-5.42v-45h5.42Z"/>
        <path d="M528.75,159.54a18.72,18.72,0,0,1,1.83-8.38,13.66,13.66,0,0,1,5.1-5.74,13.88,13.88,0,0,1,7.46-2,13.37,13.37,0,0,1,10.47,4.48q4,4.48,4,11.92v.38a18.88,18.88,0,0,1-1.77,8.31,13.46,13.46,0,0,1-5.07,5.73,14,14,0,0,1-7.57,2.05,13.33,13.33,0,0,1-10.44-4.48q-4-4.48-4-11.87Zm5.45.64a13.56,13.56,0,0,0,2.45,8.47,8.29,8.29,0,0,0,13.11,0q2.43-3.24,2.43-9.07a13.54,13.54,0,0,0-2.48-8.45,7.87,7.87,0,0,0-6.58-3.24,7.78,7.78,0,0,0-6.47,3.19Q534.2,154.23,534.2,160.18Z"/>
        <path d="M591.18,160.18q0,7.24-3.31,11.66a10.61,10.61,0,0,1-9,4.42,11.63,11.63,0,0,1-9.08-3.66v15.26H564.4V144h5l.26,3.52a11.17,11.17,0,0,1,9.2-4.1,10.81,10.81,0,0,1,9,4.31q3.33,4.31,3.33,12Zm-5.42-.62q0-5.36-2.29-8.47a7.36,7.36,0,0,0-6.27-3.11,8,8,0,0,0-7.38,4.37v15.15a8,8,0,0,0,7.44,4.34,7.32,7.32,0,0,0,6.2-3.09Q585.76,165.66,585.76,159.57Z"/>
        <path d="M611.22,176.27A13.85,13.85,0,0,1,600.73,172q-4-4.23-4-11.32v-1a19,19,0,0,1,1.8-8.42,14.06,14.06,0,0,1,5-5.8,12.68,12.68,0,0,1,7-2.09q6.18,0,9.61,4.07t3.43,11.66v2.26H602.11a11.27,11.27,0,0,0,2.74,7.57,8.61,8.61,0,0,0,6.67,2.89,9.44,9.44,0,0,0,4.86-1.17,12.22,12.22,0,0,0,3.49-3.11l3.31,2.58Q619.19,176.27,611.22,176.27Zm-.67-28.42a7.23,7.23,0,0,0-5.51,2.39,11.61,11.61,0,0,0-2.75,6.69h15.88v-.41a10.32,10.32,0,0,0-2.23-6.4A6.81,6.81,0,0,0,610.55,147.85Z"/>
        <path d="M645.18,148.84a16.24,16.24,0,0,0-2.67-.21q-5.33,0-7.24,4.54v22.5h-5.42V144h5.27l.09,3.66a8.44,8.44,0,0,1,7.56-4.25,5.54,5.54,0,0,1,2.4.41Z"/>
    </g>
</g>
</svg>
