<?xml version="1.0" encoding="UTF-8"?>
<svg width="533px" height="488px" viewBox="0 0 533 488" version="1.1" xmlns="http://www.w3.org/2000/svg" xmlns:xlink="http://www.w3.org/1999/xlink">
    <!-- Generator: Sketch 46.2 (44496) - http://www.bohemiancoding.com/sketch -->
    <title>PW-logo</title>
    <desc>Created with Sketch.</desc>
    <defs></defs>
    <g id="Page-1" stroke="none" stroke-width="1" fill="none" fill-rule="evenodd">
        <g id="SattaDavanti" transform="translate(300.875004, 82.991225) rotate(17.000000) translate(-300.875004, -82.991225) translate(190.375004, 30.991225)" fill="#FFFFFF">
            <path d="M81.0356445,5.73974609 C62.4129648,10.2004386 39.7729908,16.8189282 13.2016602,25.6005859 C7.91804559,27.9368336 4.60733596,29.7685393 3.26953125,31.0957031 C1.93172654,32.4228669 1.10897264,34.6917471 0.820800781,37.824707 C0.0563120054,40.7762293 2.13573909,43.4811447 7.05908203,45.9394531 C11.982425,48.3977615 19.6722036,50.5707759 29.6513672,52.4277344 C35.2123048,57.5363968 39.3310385,60.5862015 42.0075684,61.5771484 C44.6840982,62.5680954 48.8028319,62.5680954 53.9770508,61.4648437 C63.0967394,65.0656761 73.0397733,66.2526878 83.8061523,65.0258789 C94.5725314,63.79907 105.665142,60.2150856 117.083984,54.2739258 L117.825073,54.0040894 L119.520996,55.1152344 C120.25154,60.0231119 121.009841,63.7335612 121.795898,66.246582 C122.581956,68.7596029 124.130458,72.4239909 126.441406,77.2397461 L154.336914,77.2397461 L218.692871,103.711914 C219.803792,101.848986 220.309488,100.575061 220.209961,99.8901367 C217.610156,81.9989003 212.967273,68.9878525 209.103027,61.2822266 C205.016881,53.134113 195.194127,41.4523096 179.634766,26.2368164 C173.051663,21.8309854 168.313544,18.8650023 165.42041,17.3388672 C157.443801,13.1311868 151.03509,10.8150928 146.407715,9.05566406 C139.2628,6.33901224 129.09353,3.58478047 115.899902,0.79296875 C111.582347,-0.498364277 99.6583243,1.27905355 81.0356445,5.73974609 Z" id="Path"></path>
        </g>
        <g id="SattaDavanti" transform="translate(300.875004, 407.034921) scale(1, -1) rotate(17.000000) translate(-300.875004, -407.034921) translate(190.375004, 355.034921)" fill="#FFFFFF">
            <path d="M81.0356445,5.73974609 C62.4129648,10.2004386 39.7729908,16.8189282 13.2016602,25.6005859 C7.91804559,27.9368336 4.60733596,29.7685393 3.26953125,31.0957031 C1.93172654,32.4228669 1.10897264,34.6917471 0.820800781,37.824707 C0.0563120054,40.7762293 2.13573909,43.4811447 7.05908203,45.9394531 C11.982425,48.3977615 19.6722036,50.5707759 29.6513672,52.4277344 C35.2123048,57.5363968 39.3310385,60.5862015 42.0075684,61.5771484 C44.6840982,62.5680954 48.8028319,62.5680954 53.9770508,61.4648437 C63.0967394,65.0656761 73.0397733,66.2526878 83.8061523,65.0258789 C94.5725314,63.79907 105.665142,60.2150856 117.083984,54.2739258 L117.825073,54.0040894 L119.520996,55.1152344 C120.25154,60.0231119 121.009841,63.7335612 121.795898,66.246582 C122.581956,68.7596029 124.130458,72.4239909 126.441406,77.2397461 L154.336914,77.2397461 L218.692871,103.711914 C219.803792,101.848986 220.309488,100.575061 220.209961,99.8901367 C217.610156,81.9989003 212.967273,68.9878525 209.103027,61.2822266 C205.016881,53.134113 195.194127,41.4523096 179.634766,26.2368164 C173.051663,21.8309854 168.313544,18.8650023 165.42041,17.3388672 C157.443801,13.1311868 151.03509,10.8150928 146.407715,9.05566406 C139.2628,6.33901224 129.09353,3.58478047 115.899902,0.79296875 C111.582347,-0.498364277 99.6583243,1.27905355 81.0356445,5.73974609 Z" id="Path"></path>
        </g>
        <path d="M75.7416288,137.154122 L98.038992,147.184883 C104.836319,143.272936 109.651911,140.066474 112.485769,137.565499 C115.319628,135.064523 120.255175,130.131417 127.29241,122.766182 C129.004545,121.300879 130.269926,120.331641 131.088553,119.858467 C133.788477,118.297887 135.625226,116.752054 137.095633,116.129463 C141.147256,114.413951 145.167136,114.141634 147.715017,112.82541 C152.280725,110.466786 155.353398,108.273297 156.933035,106.244942 L156.933035,100.520821 C145.89976,96.0677597 137.648051,92.6425481 132.177908,90.2451861 C126.707765,87.8478241 118.324058,83.9823456 107.026785,78.6487506 C96.4793906,78.212484 88.8392538,78.5570478 84.1063748,79.682442 C79.3734958,80.8078361 72.7795831,83.8478752 64.3246366,88.8025592 C52.85478,97.7578196 44.6631296,104.628995 39.7496854,109.416085 C34.8362412,114.203174 26.9518825,122.994597 16.0966092,135.790352 C19.8267007,139.059509 22.8891194,141.191833 25.2838651,142.187325 C27.6786108,143.182816 31.9402482,144.095088 38.0687772,144.924141 C42.0176482,145.072725 45.0139861,145.072725 47.0577909,144.924141 C49.1015957,144.775557 52.2385585,144.275394 56.4686795,143.423653 C60.9476804,142.106161 64.3142982,141.070679 66.5685331,140.317208 C68.8227679,139.563736 71.8804665,138.509374 75.7416288,137.154122 Z" id="SattaDietro" fill="#FFFFFF" transform="translate(86.514822, 112.825410) rotate(8.000000) translate(-86.514822, -112.825410) "></path>
        <path d="M75.6024557,404.455789 L97.8998189,414.194615 C104.697146,410.396522 109.512738,407.283381 112.346596,404.855194 C115.180455,402.427006 120.116001,397.637474 127.153237,390.486597 C128.865372,389.063941 130.130753,388.122911 130.949379,387.663509 C133.649304,386.148348 135.486053,384.647504 136.95646,384.043034 C141.008083,382.37745 145.027962,382.113059 147.575844,380.835142 C152.141552,378.545164 155.214225,376.415514 156.793862,374.446192 L156.793862,368.888666 C145.760587,364.565207 137.508878,361.239683 132.038735,358.912094 C126.568592,356.584505 118.184884,352.831528 106.887612,347.653162 C96.3402175,347.229592 88.7000807,347.564128 83.9672017,348.656769 C79.2343227,349.749409 72.64041,352.700971 64.1854635,357.511453 C52.7156069,366.20608 44.5239565,372.877276 39.6105123,377.525042 C34.6970681,382.172808 26.8127094,390.708364 15.9574361,403.131711 C19.6875276,406.305723 22.7499463,408.375987 25.144692,409.342506 C27.5394377,410.309024 31.8010751,411.194746 37.9296041,411.99967 C41.8784751,412.14393 44.874813,412.14393 46.9186178,411.99967 C48.9624226,411.85541 52.0993854,411.369804 56.3295064,410.542852 C60.8085073,409.263704 64.1751251,408.258359 66.4293599,407.526817 C68.6835948,406.795274 71.7412934,405.771599 75.6024557,404.455789 Z" id="SattaDietro2" fill="#FFFFFF" transform="translate(86.375649, 380.835142) scale(1, -1) rotate(8.000000) translate(-86.375649, -380.835142) "></path>
        <path d="M408.434818,205.823065 C414.009547,200.728533 417.762659,197.371461 419.694156,195.751848 C428.257659,188.571116 438.030017,184.423438 443.839175,182.666887 C451.613714,180.316052 464.034938,179.595024 481.102847,180.503801 C489.722033,182.731644 496.036324,184.650589 500.045718,186.260637 C504.055113,187.870685 510.397886,191.034422 519.074038,195.751848 C522.084944,198.357877 524.075666,200.384407 525.046206,201.831438 C526.016747,203.278469 527.201968,205.987128 528.60187,209.957415 C529.238683,212.454421 529.634842,214.214186 529.790347,215.236711 C529.945852,216.259237 530.125052,218.964966 530.327945,223.353899 C528.536682,228.968581 527.028055,232.969394 525.802066,235.35634 C524.576076,237.743286 522.3334,241.211385 519.074038,245.760637 C505.129973,258.474465 494.156829,266.559101 486.154605,270.014543 C480.460945,272.473124 472.695202,275.12081 462.460269,276.152239 C459.693683,276.431042 455.104327,276.431042 448.692203,276.152239 C442.36785,274.732161 437.679211,273.430403 434.626285,272.246965 C431.573359,271.063528 426.445683,269.498524 419.243259,267.551953 C419.869985,253.001889 419.547647,242.096261 418.276247,234.835069 C417.004846,227.573878 413.72437,217.90321 408.434818,205.823065 Z" id="Testa" fill="#FFFFFF" transform="translate(469.381381, 228.242547) rotate(3.000000) translate(-469.381381, -228.242547) "></path>
        <path d="M47.8505859,235.205918 C47.2418181,234.931361 46.6840743,234.931361 46.1773546,235.205918 C37.7484151,239.772984 31.3580795,243.360179 27.0063477,245.967505 C22.2621984,248.809945 15.2399002,253.304412 5.93945312,259.450903 C5.31315104,260.938316 5,261.942874 5,262.464575 C5,262.986276 5.31315104,263.626576 5.93945312,264.385473 C15.0505998,270.448641 22.0728979,274.399162 27.0063477,276.237036 C31.9397974,278.07491 40.2745956,279.845418 52.0107422,281.548559 L53.1147461,280.502661 L53.1147461,279.111548 C50.2408255,269.173466 48.4861054,261.740686 47.8505859,256.813208 C47.260515,252.238113 47.4070384,245.339907 48.2901561,236.118589 C48.3355025,235.645092 48.1889791,235.340868 47.8505859,235.205918 Z" id="Coda" fill="#FFFFFF"></path>
        <path d="M233,380 C235.915585,380 238.814706,379.946631 241.69575,379.841114 C243.178335,379.786815 244.339708,374.067104 245.8125,373.985352 C247.581996,373.88713 249.66069,379.420817 251.415351,379.283495 C269.972804,377.831169 287.679315,374.208225 304.08435,368.755747 C305.892266,368.154857 305.304378,362.602881 307.080078,361.958008 C308.694828,361.371586 312.676006,365.696033 314.263163,365.073961 C332.064915,358.096719 348.102534,348.898624 361.736184,337.964073 C362.895025,337.034651 361.073845,332.463103 362.197557,331.508887 C363.334527,330.543414 367.41597,333.194982 368.516168,332.204739 C382.164441,319.920491 392.951939,305.754056 400.101688,290.293653 C400.818867,288.742847 397.386719,285.64754 398.02991,284.071289 C398.585713,282.709195 403.226323,282.869304 403.725786,281.489036 C407.815964,270.185797 410,258.285991 410,246 C410,228.880285 405.759349,212.510408 398.02991,197.459574 C397.493292,196.414669 395.057479,196.040789 394.487483,195.008789 C393.878808,193.906761 395.133627,192.147532 394.487483,191.06067 C386.42128,177.492718 375.459305,165.124547 362.197557,154.407365 C361.083971,153.507446 358.12125,155.283736 356.975586,154.407365 C355.950292,153.623072 356.745213,150.183748 355.694763,149.41872 C343.130647,140.268457 328.785227,132.509979 313.091275,126.470919 C311.815094,125.979843 309.400227,129.208396 308.106445,128.740234 C306.715181,128.236799 306.443644,124.038454 305.032585,123.561939 C288.662484,118.033759 270.979733,114.331979 252.436147,112.798652 C250.989852,112.679061 249.23878,115.639922 247.782227,115.546875 C246.34125,115.454823 245.194899,112.308581 243.7443,112.242824 C240.190111,112.081712 236.60766,112 233,112 C218.193755,112 203.812125,113.376334 190.066156,115.969228 C188.709321,116.225167 188.479011,119.7625 187.134766,120.041992 C185.644589,120.351826 183.041941,117.406495 181.567762,117.744875 C164.525104,121.656803 148.569976,127.462352 134.129618,134.838072 C132.849996,135.491666 133.80241,138.549154 132.546875,139.227182 C131.100233,140.008415 127.449635,138.414154 126.03582,139.227182 C109.275726,148.865236 94.8541494,160.713231 83.5286735,174.197626 C82.6495667,175.244313 84.3701168,177.587183 83.5286735,178.65332 C82.6974401,179.706522 79.3037548,179.482759 78.5099637,180.554422 C69.9298472,192.138064 63.5569778,204.785076 59.8227174,218.16889 C59.379175,219.758573 62.5666115,221.879333 62.1982422,223.489258 C61.86634,224.939806 57.9714905,225.877666 57.7017299,227.343803 C56.5799174,233.440803 56,239.669131 56,246 C56,260.206023 58.9200111,273.895726 64.3304317,286.743874 C64.843625,287.962556 69.6767356,287.25084 70.234375,288.454102 C70.7413152,289.547966 66.9689587,292.55817 67.5120521,293.638853 C73.4621336,305.478709 81.5654516,316.514923 91.4597871,326.473273 C92.3370715,327.356233 96.9678547,324.233788 97.8730469,325.099609 C98.7217451,325.911394 95.84318,330.712494 96.7159812,331.508887 C107.444119,341.297849 119.977321,349.912202 133.929135,357.059376 C135.364705,357.794784 139.103171,353.954181 140.568359,354.658203 C141.67975,355.192225 140.511663,360.277603 141.639668,360.793245 C155.053646,366.925133 169.629439,371.747525 185.058064,375.026502 C186.410028,375.313829 188.701302,370.426962 190.066156,370.69043 C191.347515,370.93778 191.701702,376.336887 192.994067,376.562939 C205.849847,378.811581 219.241603,380 233,380 Z" id="Oval" fill="#FFFFFF"></path>
        <path d="M129.988281,339.384766 L129.988281,150.169922 C139.070788,144.229663 146.036934,140.125496 150.886719,137.857422 C155.736503,135.589347 163.508639,132.800936 174.203125,129.492188 C186.103482,126.955506 195.057258,125.42686 201.064453,124.90625 C207.071648,124.38564 215.756544,124.38564 227.119141,124.90625 L227.119141,244.248047 L155.417969,244.248047 L155.417969,350.505859 C148.72913,349.50296 143.871057,348.339549 140.84375,347.015625 C137.816443,345.691701 134.197953,343.148081 129.988281,339.384766 Z M151.863281,214.672723 L203,214.672723 L203,148.855469 C191.570512,147.607054 183.047726,147.607054 177.431641,148.855469 C171.815555,150.103884 163.292769,153.89299 151.863281,160.222789 L151.863281,214.672723 Z" id="Combined-Shape" stroke="#FFFFFF" fill="#9B59B6"></path>
        <path d="M243.265625,124.943359 C243.265625,124.943359 243.265625,204.911458 243.265625,364.847656 C251.929661,364.41562 258.461562,363.674083 262.861328,362.623047 C267.261094,361.572011 273.453802,359.983469 281.439453,357.857422 L297.804688,232.650391 L305.509766,351.140625 C313.286802,348.10706 319.002948,345.928023 322.658203,344.603516 C326.313459,343.279008 331.321271,340.612992 337.681641,336.605469 L346.429688,160.839844 C343.057361,155.755664 340.141346,152.491993 337.681641,151.048828 C335.221936,149.605664 330.214123,147.252148 322.658203,143.988281 L313.613281,228.779297 L297.804688,140.337891 L281.439453,228.779297 L281.439453,128.414062 C271.975589,126.6459 265.78288,125.488999 262.861328,124.943359 C251.428119,122.808053 243.265625,124.943359 243.265625,124.943359 Z" id="Path-13" stroke="#FFFFFF" fill="#9B59B6"></path>
    </g>
</svg>