<svg xmlns="http://www.w3.org/2000/svg" xmlns:xlink="http://www.w3.org/1999/xlink" viewBox="0 0 708.84 693">
    <defs>
        <linearGradient id="linear-gradient" x1="390.52" y1="138.12" x2="390.68" y2="138.12" gradientUnits="userSpaceOnUse">
            <stop offset="0" stop-color="#a3bcbf" />
            <stop offset="1" stop-color="#2c3738" />
        </linearGradient>
        <linearGradient id="linear-gradient-2" x1="349.14" y1="128.51" x2="349.68" y2="128.51" xlink:href="#linear-gradient" />
        <linearGradient id="linear-gradient-3" x1="17.11" y1="276.54" x2="681.84" y2="276.54" gradientUnits="userSpaceOnUse">
            <stop offset="0" stop-color="#98afb3" />
            <stop offset="1" stop-color="#98b0b3" />
        </linearGradient>
        <linearGradient id="linear-gradient-4" x1="186.42" y1="319.26" x2="621.93" y2="319.26" gradientUnits="userSpaceOnUse">
            <stop offset="0" stop-color="#4db2b3" />
            <stop offset="1" stop-color="#8f4dae" />
        </linearGradient>
        <linearGradient id="linear-gradient-5" x1="501.04" y1="208.59" x2="429.61" y2="296.84" gradientUnits="userSpaceOnUse">
            <stop offset="0" stop-color="#fff" stop-opacity="0" />
            <stop offset="1" stop-color="#fff" stop-opacity="0.6" />
        </linearGradient>
        <linearGradient id="linear-gradient-6" x1="507.97" y1="207.02" x2="480.02" y2="241.54" xlink:href="#linear-gradient-5" />
        <linearGradient id="linear-gradient-7" x1="226.53" y1="-2.91" x2="403.01" y2="278.63" gradientUnits="userSpaceOnUse">
            <stop offset="0" stop-color="#a3bcbf" />
            <stop offset="1" stop-color="#77949a" />
        </linearGradient>
        <linearGradient id="linear-gradient-8" x1="36.12" y1="116.48" x2="212.6" y2="398.01" xlink:href="#linear-gradient-7" />
        <linearGradient id="linear-gradient-9" x1="36.13" y1="116.12" x2="212.61" y2="397.65" xlink:href="#linear-gradient-7" />
        <linearGradient id="linear-gradient-10" x1="347.86" y1="284.38" x2="290.38" y2="355.37" xlink:href="#linear-gradient-7" />
        <linearGradient id="linear-gradient-11" x1="557.58" y1="475.64" x2="525.12" y2="515.74" xlink:href="#linear-gradient-7" />
        <linearGradient id="linear-gradient-12" x1="0" y1="145.07" x2="100.18" y2="145.07" xlink:href="#linear-gradient-7" />
        <linearGradient id="linear-gradient-13" x1="222.14" y1="355.98" x2="223.52" y2="355.98" xlink:href="#linear-gradient-7" />
    </defs>
    <title>PW-turtle-logo</title>
    <g style="isolation:isolate">
        <g id="Layer_2" data-name="Layer 2">
            <g id="Layer_1-2" data-name="Layer 1">
                <path d="M390.68,138.15l-.15,0h0Z" style="fill:url(#linear-gradient)" />
                <path d="M349.68,128.56l-.17,0-.37-.07Z" style="fill:url(#linear-gradient-2)" />
                <path d="M681.84,519a486.79,486.79,0,0,1-176.73,33q-24.54,0-48.48-2.38-14.69-1.44-29.1-3.76l-.11,0c-.75-.11-1.49-.23-2.23-.36h0c-4.89-.8-9.74-1.68-14.58-2.63q-12.78-2.5-25.33-5.68l-.26-.06-4.78-1.24-.31-.08A486,486,0,0,1,220.15,460.2l-.63-.45c-2.53-1.83-5.07-3.69-7.56-5.59l-.71-.53q-5.89-4.44-11.65-9.08l-.2-.15q-18-14.46-34.51-30.55a1.82,1.82,0,0,1-.14-.14,489.51,489.51,0,0,1-95.9-130.8A486,486,0,0,1,17.11,64,493.39,493.39,0,0,1,20.53,5.88c.18-1.48.36-3,.55-4.44,0-.12,0-.24.05-.35A192.55,192.55,0,0,1,180.73,124.9c1.13,2.94,2.2,6,3.15,9,.75,2.92,1.55,5.87,2.41,8.76.13.47.26,1,.4,1.41s.23.78.34,1.18c-.19-.77-.4-1.53-.61-2.29A323.11,323.11,0,0,1,271.66,125q11.94-.91,24.14-.91c1.58,0,3.16,0,4.73,0h.63c1.62,0,3.23.06,4.84.11,1.45,0,2.89.1,4.32.16.83,0,1.66.07,2.48.12l1.26.07c.91,0,1.82.1,2.74.16,1.65.1,3.29.22,4.93.35,1.48.12,3,.24,4.44.38l4.53.45.62.07c1.61.17,3.21.36,4.81.56,3.31.4,6.6.85,9.87,1.37q1.75.27,3.51.57l3.49.6,1,.18q3.2.57,6.34,1.21l.51.1q1.94.39,3.87.81c1.27.27,2.53.55,3.79.84,1,.22,2,.45,2.95.69l3.54.86c1.25.31,2.5.63,3.74,1l.26.06,3.8,1,3.87,1.09,3.49,1,.36.11.16,0,.4.12,3.27,1c1.28.4,2.55.81,3.82,1.23l.57.18q.34.11.69.24l2.7.92.8.27,2.8,1,3.75,1.37.26.09c1.16.43,2.31.87,3.46,1.32l.17.06,3.61,1.42,2.85,1.16.73.3.1,0c2.2.92,4.39,1.85,6.57,2.81l0,0,1.17.52c1,.42,1.93.86,2.89,1.3l.18.08.23.11,3.36,1.56c1.47.7,2.93,1.4,4.39,2.12q4.37,2.13,8.66,4.42,2.14,1.13,4.28,2.3l4.23,2.36q2,1.13,4,2.28l.25.15q1.86,1.09,3.72,2.22l.89.54c1.2.73,2.4,1.48,3.59,2.22l3.4,2.17c.5.32,1,.64,1.49,1q1.9,1.25,3.78,2.5c1.16.78,2.31,1.57,3.46,2.37l.08.06c1.31.9,2.62,1.82,3.91,2.74q2.16,1.55,4.29,3.13c1,.76,2.08,1.54,3.11,2.32,1.22.92,2.44,1.86,3.64,2.8l1.61,1.26,3.28,2.62,3.1,2.55q7.6,6.33,14.8,13.09,1.61,1.5,3.18,3t3.31,3.23c1.32,1.31,2.62,2.63,3.92,4q1.48,1.53,3,3.07c.75.79,1.5,1.59,2.24,2.39l1.65,1.78c.88,1,1.76,1.93,2.63,2.91s1.68,1.88,2.5,2.83l1.64,1.89q2.91,3.38,5.71,6.82c.87,1.06,1.72,2.12,2.57,3.19q1.5,1.89,3,3.8t2.92,3.85c.82,1.09,1.63,2.19,2.44,3.3l.52.72q1.35,1.88,2.69,3.77a.05.05,0,0,0,0,0c.83,1.17,1.64,2.35,2.45,3.53l.29.43c.9,1.33,1.8,2.67,2.68,4q2.57,3.89,5,7.83c.13.22.27.44.41.66q2.43,4,4.76,8c.81,1.4,1.6,2.81,2.39,4.22a.35.35,0,0,0,.05.08q1.15,2.09,2.28,4.18c.54,1,1.07,2,1.6,3l1.14,2.21c.46.88.91,1.77,1.35,2.66.56,1.11,1.11,2.21,1.66,3.33l.15.31.3.61c.62,1.29,1.23,2.59,1.84,3.89l1,2.1.62,1.34.84,1.88c.44,1,.89,2,1.32,3s.88,2,1.3,3c1.12,2.64,2.21,5.31,3.25,8h0c.5,1.29,1,2.59,1.48,3.88l.31.81.3.82q.7,1.89,1.38,3.78c.31.85.61,1.71.9,2.56.38,1.09.76,2.18,1.13,3.28s.64,1.91,1,2.87.71,2.2,1.06,3.31c.45,1.45.9,2.89,1.33,4.35s.83,2.82,1.23,4.24c0,.07,0,.15.07.23.4,1.42.8,2.85,1.18,4.29a320.3,320.3,0,0,1,8.7,45.1c.65,5.38,1.18,10.82,1.56,16.29.54,7.62.82,15.33.82,23.09a324,324,0,0,1-6.35,64.12c4.69.65,9.35,1.21,14.1,1.72h0q22.44,2.36,45.44,2.81C677.37,519,679.6,519,681.84,519Z" style="fill:url(#linear-gradient-3)" />
                <path d="M621.93,450.28a324,324,0,0,1-6.35,64.12l-2.11-.29-2.35-.32-.14,0c-2.87-.4-5.74-.83-8.59-1.3s-6-1-8.93-1.51c-1.34-.24-2.69-.48-4-.74s-2.69-.5-4-.77l-1.89-.37c-2.58-.51-5.15-1-7.72-1.6A506.59,506.59,0,0,1,516.52,491q-21.67-7.4-42.5-16.74-2-.85-4-1.77l-.22-.1q-12.75-5.82-25.11-12.31L442,458.68q-6.54-3.46-13-7.13-1.55-.87-3.09-1.77-3.4-2-6.78-4c-1-.56-1.91-1.14-2.86-1.72q-3.22-2-6.42-4l-3-1.91q-5.12-3.26-10.15-6.63c-1.2-.8-2.4-1.61-3.59-2.43q-10.8-7.37-21.19-15.25l-2.15-1.63c-1.71-1.31-3.42-2.64-5.11-4q-2-1.54-3.93-3.11-7.4-5.94-14.58-12.14c-.75-.65-1.5-1.29-2.24-2q-2.76-2.4-5.47-4.85c-.91-.81-1.81-1.63-2.71-2.45q-6.77-6.15-13.29-12.55c-.87-.85-1.74-1.7-2.6-2.56q-3.59-3.54-7.07-7.15c-1-1-1.91-2-2.85-3q-2.22-2.31-4.38-4.65c-.4-.42-.78-.84-1.17-1.26q-1.65-1.79-3.28-3.58-2-2.22-4-4.47t-4-4.52q-1.55-1.78-3.08-3.58L289,335.21c-1.21-1.43-2.42-2.87-3.61-4.31Q275,318.39,265.44,305.25a515.33,515.33,0,0,1-78-158.37c-.12-.53-.25-1.06-.38-1.58a.14.14,0,0,0,0-.06c-.19-.77-.4-1.53-.61-2.29A323.11,323.11,0,0,1,271.66,125q11.94-.91,24.14-.91c1.58,0,3.16,0,4.73,0h.63c1.62,0,3.23.06,4.84.11,1.45,0,2.89.1,4.32.16.83,0,1.66.07,2.48.12l1.26.07c.91,0,1.82.1,2.74.16,1.65.1,3.29.22,4.93.35,1.48.12,3,.24,4.44.38l4.53.45.62.07c1.61.17,3.21.36,4.81.56,3.31.4,6.6.85,9.87,1.37q1.75.27,3.51.57l3.49.6,1,.18q3.2.57,6.34,1.21l.51.1q1.94.39,3.87.81c1.27.27,2.53.55,3.79.84,1,.22,2,.45,2.95.69l3.54.86c1.25.31,2.5.63,3.74,1l.26.06,3.8,1,3.87,1.09,3.49,1,.36.11.16,0,.4.12,3.27,1c1.28.4,2.55.81,3.82,1.23l.57.18q.34.11.69.24l2.7.92.8.27,2.8,1,3.75,1.37.26.09c1.16.43,2.31.87,3.46,1.32l.17.06,3.61,1.42,2.85,1.16.73.3.1,0c2.2.92,4.39,1.85,6.57,2.81l0,0,1.17.52c1,.42,1.93.86,2.89,1.3l.18.08.23.11,3.36,1.56c1.47.7,2.93,1.4,4.39,2.12q4.37,2.13,8.66,4.42,2.14,1.13,4.28,2.3l4.23,2.36q2,1.13,4,2.28l.25.15q1.86,1.09,3.72,2.22l.89.54c1.2.73,2.4,1.48,3.59,2.22l3.4,2.17c.5.32,1,.64,1.49,1q1.9,1.25,3.78,2.5c1.16.78,2.31,1.57,3.46,2.37l.08.06c1.31.9,2.62,1.82,3.91,2.74q2.16,1.55,4.29,3.13c1,.76,2.08,1.54,3.11,2.32,1.22.92,2.44,1.86,3.64,2.8l1.61,1.26,3.28,2.62,3.1,2.55q7.6,6.33,14.8,13.09,1.61,1.5,3.18,3t3.31,3.23c1.32,1.31,2.62,2.63,3.92,4q1.48,1.53,3,3.07c.75.79,1.5,1.59,2.24,2.39l1.65,1.78c.88,1,1.76,1.93,2.63,2.91s1.68,1.88,2.5,2.83l1.64,1.89q2.91,3.38,5.71,6.82c.87,1.06,1.72,2.12,2.57,3.19q1.5,1.89,3,3.8t2.92,3.85c.82,1.09,1.63,2.19,2.44,3.3l.52.72q1.35,1.88,2.69,3.77a.05.05,0,0,0,0,0c.83,1.17,1.64,2.35,2.45,3.53l.29.43c.9,1.33,1.8,2.67,2.68,4q2.57,3.89,5,7.83c.13.22.27.44.41.66q2.43,4,4.76,8c.81,1.4,1.6,2.81,2.39,4.22a.35.35,0,0,0,.05.08q1.15,2.09,2.28,4.18c.54,1,1.07,2,1.6,3l1.14,2.21c.46.88.91,1.77,1.35,2.66.56,1.11,1.11,2.21,1.66,3.33l.15.31.3.61c.62,1.29,1.23,2.59,1.84,3.89l1,2.1.62,1.34.84,1.88c.44,1,.89,2,1.32,3s.88,2,1.3,3c1.12,2.64,2.21,5.31,3.25,8h0c.5,1.29,1,2.59,1.48,3.88l.31.81.3.82q.7,1.89,1.38,3.78c.31.85.61,1.71.9,2.56.38,1.09.76,2.18,1.13,3.28s.64,1.91,1,2.87.71,2.2,1.06,3.31c.45,1.45.9,2.89,1.33,4.35s.83,2.82,1.23,4.24c0,.07,0,.15.07.23.4,1.42.8,2.85,1.18,4.29a320.3,320.3,0,0,1,8.7,45.1c.65,5.38,1.18,10.82,1.56,16.29C621.65,434.81,621.93,442.52,621.93,450.28Z" style="fill:url(#linear-gradient-4)" />
                <path d="M621.11,427.19q-20.09-5.12-39.46-11.81Q560,408,539.15,398.63c-1.33-.56-2.65-1.15-4-1.76a520.4,520.4,0,0,1-184.68-141.6q-10.34-12.52-19.91-25.66A515.49,515.49,0,0,1,271.66,125q11.94-.91,24.14-.91c1.58,0,3.16,0,4.73,0h.63c1.62,0,3.23.06,4.84.11,1.45,0,2.89.1,4.32.16.83,0,1.66.07,2.48.12l1.26.07c.91,0,1.82.1,2.74.16,1.65.1,3.29.22,4.93.35,1.48.12,3,.24,4.44.38l4.53.45.62.07c1.61.17,3.21.36,4.81.56,3.3.41,6.59.86,9.87,1.37l3.14.5.54.09.77.13,2.59.45.6.1,3.34.62,3.36.67.51.1q1.94.39,3.87.81c1.27.27,2.53.55,3.79.84,1,.22,2,.45,2.95.69l3.54.86c1.25.31,2.5.63,3.74,1l.26.06,3.8,1,3.87,1.09c1.29.37,2.58.75,3.86,1.14l3.82,1.19c1.28.4,2.55.81,3.82,1.23l1.26.42,2.7.92q1.8.61,3.6,1.26l3.75,1.37q1.86.69,3.72,1.41l.17.06,3.61,1.42,2.85,1.16.73.3.1,0c2.2.92,4.39,1.85,6.57,2.81l0,0,1.17.52c1,.42,1.93.86,2.89,1.3l.18.08.23.11,3.36,1.56c1.47.7,2.93,1.4,4.39,2.12q4.37,2.14,8.66,4.42,2.14,1.13,4.28,2.3l4.23,2.36q2,1.13,4,2.28l.25.15q1.86,1.09,3.72,2.22l.89.54c1.2.73,2.4,1.48,3.59,2.22l3.4,2.17c.5.32,1,.64,1.49,1q1.9,1.25,3.78,2.5c1.16.78,2.31,1.57,3.46,2.37l.08.06c1.31.9,2.62,1.82,3.91,2.74q2.16,1.55,4.29,3.13c1,.76,2.08,1.54,3.11,2.32,1.22.92,2.44,1.86,3.64,2.8l1.61,1.26,3.28,2.62,3.1,2.55q7.6,6.33,14.8,13.09,1.61,1.5,3.18,3t3.31,3.23c1.32,1.31,2.62,2.63,3.92,4q1.48,1.53,3,3.07c.75.79,1.5,1.59,2.24,2.39l1.65,1.78c.88,1,1.76,1.93,2.63,2.91s1.68,1.88,2.5,2.83l1.64,1.89q2.91,3.38,5.71,6.82c.87,1.06,1.72,2.12,2.57,3.19q1.5,1.89,3,3.8t2.92,3.85c.82,1.09,1.63,2.19,2.44,3.3l.52.72q1.35,1.88,2.69,3.77a.05.05,0,0,0,0,0c.83,1.17,1.64,2.35,2.45,3.53l.29.43c.9,1.33,1.8,2.67,2.68,4q2.57,3.89,5,7.83c.13.22.27.44.41.66q2.43,4,4.76,8c.81,1.4,1.6,2.81,2.39,4.22a.35.35,0,0,0,.05.08q1.15,2.09,2.28,4.18c.54,1,1.07,2,1.6,3l.67,1.28c.16.31.32.62.47.93.46.88.91,1.77,1.35,2.66.56,1.11,1.11,2.21,1.66,3.33l.15.31.3.61.42.86.72,1.51c.24.51.47,1,.7,1.52l1,2.1.62,1.34.84,1.88c.08.17.15.34.23.5.19.42.37.84.55,1.26l.54,1.26c.44,1,.88,2,1.3,3,1.12,2.64,2.21,5.31,3.25,8h0c.5,1.29,1,2.59,1.48,3.88l.31.81.3.82c.63,1.68,1.25,3.36,1.85,5.06q.8,2.28,1.56,4.56c.09.25.17.51.26.76l0,.09.66,2c.36,1.1.71,2.2,1.06,3.31.45,1.45.9,2.89,1.33,4.35s.83,2.82,1.23,4.24c0,.07,0,.15.07.23.4,1.42.8,2.85,1.18,4.29a320.3,320.3,0,0,1,8.7,45.1C620.2,416.28,620.73,421.72,621.11,427.19Z" style="mix-blend-mode:soft-light;fill:url(#linear-gradient-5)" />
                <path d="M599.52,331.37A520,520,0,0,1,415.61,190.14q-10.34-12.53-19.91-25.66-10.87-14.94-20.7-30.65c1.25.31,2.5.63,3.74,1l.26.06,3.8,1,3.87,1.09c1.29.37,2.58.75,3.86,1.14l3.82,1.19c1.28.4,2.55.81,3.82,1.23l1.26.42,2.7.92q1.8.61,3.6,1.26l3.75,1.37q1.86.69,3.72,1.41l.17.06,3.61,1.42,2.85,1.16.73.3.1,0c2.2.92,4.39,1.85,6.57,2.81l0,0,1.17.52c1,.42,1.93.86,2.89,1.3l.18.08.23.11,3.36,1.56c1.47.7,2.93,1.4,4.39,2.12q4.37,2.14,8.66,4.42,2.14,1.13,4.28,2.3l4.23,2.36q2,1.13,4,2.28l.25.15q1.86,1.09,3.72,2.22l.89.54c1.2.73,2.4,1.48,3.59,2.22l3.4,2.17c.5.32,1,.64,1.49,1q1.9,1.25,3.78,2.5c1.16.78,2.31,1.57,3.46,2.37l.08.06c1.31.9,2.62,1.82,3.91,2.74q2.16,1.55,4.29,3.13c1,.76,2.08,1.54,3.11,2.32,1.22.92,2.44,1.86,3.64,2.8l1.61,1.26,3.28,2.62,3.1,2.55q7.6,6.33,14.8,13.09,1.61,1.5,3.18,3t3.31,3.23c1.32,1.31,2.62,2.63,3.92,4q1.48,1.53,3,3.07c.75.79,1.5,1.59,2.24,2.39l1.65,1.78c.88,1,1.76,1.93,2.63,2.91s1.68,1.88,2.5,2.83l1.64,1.89q2.91,3.38,5.71,6.82c.87,1.06,1.72,2.12,2.57,3.19q1.5,1.89,3,3.8t2.92,3.85c.82,1.09,1.63,2.19,2.44,3.3l.52.72q1.35,1.88,2.69,3.77a.05.05,0,0,0,0,0c.83,1.17,1.64,2.35,2.45,3.53l.29.43c.9,1.33,1.8,2.67,2.68,4q2.57,3.89,5,7.83c.13.22.27.44.41.66q2.43,4,4.76,8c.81,1.4,1.6,2.81,2.39,4.22a.35.35,0,0,0,.05.08q1.15,2.09,2.28,4.18c.54,1,1.07,2,1.6,3l.67,1.28c.16.31.32.62.47.93.46.88.91,1.77,1.35,2.66.56,1.11,1.11,2.21,1.66,3.33l.15.31.3.61.42.86.72,1.51c.24.51.47,1,.7,1.52l1,2.1.62,1.34.84,1.88c.08.17.15.34.23.5.19.42.37.84.55,1.26l.54,1.26c.44,1,.88,2,1.3,3C597.39,326,598.48,328.69,599.52,331.37Z" style="mix-blend-mode:soft-light;fill:url(#linear-gradient-6)" />
                <path d="M708.84,518.45q-19.66,7.79-40.13,13.95a519.3,519.3,0,0,1-61.34,14.5c-7,1.22-14.06,2.29-21.18,3.19a128.34,128.34,0,0,0-29.48,81.81c0,4.44.25,8.78.65,13.11v0c.42,3.81,1,7.57,1.71,11.22a126.37,126.37,0,0,0,10,30.7C512,713.63,456.6,649.19,456.6,550.81l0-1.19a191.15,191.15,0,0,1,12.3-63.15c1.56-4.13,3.26-8.21,5.09-12.2q20.81,9.33,42.5,16.74a506.59,506.59,0,0,0,59.27,16.47c2.57.55,5.14,1.09,7.72,1.6l1.89.37c1.34.27,2.68.52,4,.77s2.69.5,4,.74c3,.53,5.94,1,8.93,1.51s6,.92,9,1.34l2.11.3,2.11.29c4.69.65,9.35,1.21,14.1,1.72h0q22.44,2.36,45.44,2.81c2.23,0,4.46.07,6.7.08H685C693,519,700.94,518.85,708.84,518.45Z" style="fill:url(#linear-gradient-7)" />
                <path d="M470,472.5c-3.34,3.61-6.56,7.33-9.6,11.2a191.52,191.52,0,0,0-33.09,62.76h0A516,516,0,0,1,199.59,444.79a190.41,190.41,0,0,1,23.61-87c.36-.71.76-1.43,1.16-2.14-.36.21-.69.44-1,.65s-.8.5-1.2.78a193.18,193.18,0,0,0-57.78,57.61,189,189,0,0,0-18.57,37,193,193,0,0,0-2.46,127.74c-91.85-18-109.63-227.6-77.78-289.72l.32-.63q-12.32-22-22.52-45.25A516.82,516.82,0,0,1,0,35.91Q0,18,1.2.36c1.34,0,2.69,0,4,0A192.49,192.49,0,0,1,180.73,125.26c1.13,2.94,2.21,5.95,3.15,9,.76,2.92,1.55,5.86,2.42,8.76.13.46.25.95.4,1.41.23.82.48,1.66.74,2.46a515.41,515.41,0,0,0,78,158.37q9.55,13.14,19.92,25.65A520.31,520.31,0,0,0,470,472.5Z" style="fill:url(#linear-gradient-8)" />
                <path d="M470,472.15c-.08.08-.15.17-.22.25-3.27,3.53-6.41,7.17-9.38,10.94l-.22.28a191.38,191.38,0,0,0-32.79,62.22l-.08.26h0l-.43-.08h0q-8.18-1.45-16.25-3.17a516.26,516.26,0,0,1-211-98.41h0a190.44,190.44,0,0,1,22.29-84.58c.37-.68.74-1.37,1.12-2l.21-.39c.26-.53.55-1,.83-1.58h0l.31-.55-1,.62-.05,0-.79.52-.4.26a193,193,0,0,0-57.39,57l-.39.6a188.57,188.57,0,0,0-18.57,37,191.13,191.13,0,0,0-12.14,65.47c0,.62,0,1.24,0,1.86v.72q0,1.26,0,2.52c0,.24,0,.47,0,.71a191.13,191.13,0,0,0,9.65,56.45l-.12,0h0C81.88,566.87,53.62,469.27,51.12,387.35c-.08-2.65-.13-5.27-.16-7.88q0-3.51,0-7t.12-6.62c.06-2.19.13-4.35.24-6.5,0-1.08.1-2.14.16-3.21s.13-2.12.19-3.17c1.68-26.42,6.42-49.1,13.89-63.67.08-.15.15-.29.22-.44h0l.1-.18q-12.33-22-22.52-45.25A516.46,516.46,0,0,1,0,42.47c0-2.18,0-4.37,0-6.56,0-3,0-6,.07-9Q.28,13.38,1.2,0c1.34,0,2.69,0,4,0,5.36.13,10.68.48,15.92,1A192.55,192.55,0,0,1,180.73,124.9c1.13,2.94,2.2,6,3.15,9,.75,2.92,1.55,5.87,2.41,8.76.13.47.26,1,.4,1.41s.23.78.34,1.18a.14.14,0,0,1,0,.06c.13.41.26.82.38,1.22a515.33,515.33,0,0,0,78,158.37Q275,318,285.35,330.54A520.31,520.31,0,0,0,470,472.15Z" style="fill:url(#linear-gradient-9)" />
                <path d="M470,472.5c-3.34,3.61-6.56,7.33-9.6,11.2C187.26,392.46,185.71,146.92,185.71,146.92s.36-.88,1-2.5c.23.82.48,1.66.74,2.46a515.41,515.41,0,0,0,78,158.37q9.55,13.14,19.92,25.65A520.31,520.31,0,0,0,470,472.5Z" style="opacity:0.5;mix-blend-mode:multiply;fill:url(#linear-gradient-10)" />
                <path d="M611.36,513.81C557.3,509,510.11,499.46,468.93,486.47q2.33-6.21,5.08-12.21,20.8,9.33,42.5,16.74a508,508,0,0,0,59.27,16.47Q593.34,511.27,611.36,513.81Z" style="opacity:0.5;mix-blend-mode:multiply;fill:url(#linear-gradient-11)" />
                <path d="M66,289.78l-.4-.08.32-.63q-12.32-22-22.52-45.25A516.82,516.82,0,0,1,0,35.91Q0,18,1.2.36c1.34,0,2.69,0,4,0C43.53,9.48,156.29,79.69,66,289.78Z" style="opacity:0.5;mix-blend-mode:multiply;fill:url(#linear-gradient-12)" />
                <path d="M223.33,356.28c-.4.25-.8.5-1.2.78l1.39-2.14S223.44,355.38,223.33,356.28Z" style="fill:url(#linear-gradient-13)" />
            </g>
        </g>
    </g>
</svg>